<?xml version="1.0" standalone="no"?>
<!DOCTYPE svg PUBLIC "-//W3C//DTD SVG 20010904//EN"
 "http://www.w3.org/TR/2001/REC-SVG-20010904/DTD/svg10.dtd">
<svg version="1.0" xmlns="http://www.w3.org/2000/svg"
 width="220.000000pt" height="293.000000pt" viewBox="0 0 220.000000 293.000000"
 preserveAspectRatio="xMidYMid meet">

<g transform="translate(0.000000,293.000000) scale(0.100000,-0.100000)"
fill="#000000" stroke="none">
<path d="M974 2879 c-46 -23 -59 -108 -23 -153 16 -20 29 -26 58 -26 37 0 71
23 71 47 0 20 -26 21 -38 2 -14 -22 -42 -25 -60 -7 -7 7 -12 31 -12 55 0 32 5
45 19 53 21 10 51 4 51 -11 0 -5 9 -9 20 -9 23 0 25 9 8 33 -16 21 -67 30 -94
16z"/>
<path d="M758 2803 c2 -43 8 -84 14 -90 15 -18 93 -16 108 2 7 9 15 49 18 90
4 71 3 75 -16 75 -19 0 -21 -7 -24 -72 l-3 -73 -30 0 -30 0 -3 73 c-2 60 -6
72 -20 72 -15 0 -17 -10 -14 -77z"/>
<path d="M1120 2790 c0 -72 3 -90 15 -90 10 0 15 15 17 58 l3 57 33 -57 c22
-40 38 -58 52 -58 18 0 20 7 20 90 0 85 -1 90 -21 90 -20 0 -21 -4 -17 -55 3
-30 2 -55 -1 -55 -3 0 -19 25 -36 55 -19 35 -36 55 -47 55 -16 0 -18 -10 -18
-90z"/>
<path d="M1300 2790 l0 -90 65 0 c51 0 65 3 65 15 0 11 -12 15 -50 15 -47 0
-50 2 -50 25 0 23 4 25 45 25 33 0 45 4 45 15 0 11 -12 15 -45 15 -38 0 -45 3
-45 20 0 17 7 20 50 20 38 0 50 4 50 15 0 12 -14 15 -65 15 l-65 0 0 -90z"/>
<path d="M120 2120 l0 -540 48 0 49 0 12 81 c23 153 85 290 190 422 130 164
352 289 556 315 l60 7 3 128 3 127 -461 0 -460 0 0 -540z"/>
<path d="M1150 2535 l0 -124 38 -6 c334 -50 570 -217 708 -500 43 -90 84 -231
84 -292 0 -33 0 -33 50 -33 l50 0 0 540 0 540 -465 0 -465 0 0 -125z"/>
<path d="M1058 2328 c7 -7 13 -26 13 -42 l2 -31 4 30 c3 17 9 36 15 43 8 9 4
12 -18 12 -22 0 -25 -3 -16 -12z"/>
<path d="M1116 2308 c-20 -47 -20 -54 -1 -38 12 10 18 10 31 -1 13 -11 14 -9
8 17 -13 57 -22 62 -38 22z m24 -8 c0 -5 -5 -10 -11 -10 -5 0 -7 5 -4 10 3 6
8 10 11 10 2 0 4 -4 4 -10z"/>
<path d="M937 2323 c-14 -4 -17 -11 -13 -26 3 -12 6 -30 6 -39 0 -12 8 -18 25
-18 14 0 25 5 25 11 0 6 -9 8 -20 4 -14 -4 -20 -2 -20 9 0 8 8 17 18 19 13 4
11 5 -5 6 -28 1 -31 21 -3 21 11 0 20 5 20 10 0 10 -3 11 -33 3z"/>
<path d="M990 2316 c0 -7 10 -20 23 -29 12 -8 19 -18 15 -22 -4 -4 -14 -2 -23
5 -11 9 -15 9 -15 1 0 -18 29 -25 45 -11 17 14 3 40 -21 40 -8 0 -14 5 -14 11
0 6 9 8 21 4 15 -5 19 -4 15 4 -10 16 -46 14 -46 -3z"/>
<path d="M1175 2308 c-4 -14 -5 -35 -2 -45 3 -11 5 -7 6 12 l2 30 16 -30 c15
-27 17 -28 24 -10 4 11 7 31 7 45 0 22 -1 22 -7 -5 l-7 -30 -16 30 -16 30 -7
-27z"/>
<path d="M1247 2285 c-14 -30 -15 -33 -1 -28 9 3 20 0 24 -8 13 -20 18 -8 12
34 -5 46 -14 47 -35 2z"/>
<path d="M861 2301 c-11 -7 -11 -15 -1 -45 13 -40 18 -42 46 -22 17 14 18 17
4 42 -17 31 -29 37 -49 25z m42 -30 c5 -22 0 -31 -19 -31 -6 0 -14 11 -16 25
-4 19 -1 25 12 25 10 0 20 -9 23 -19z"/>
<path d="M1333 2285 c-3 -9 3 -25 12 -35 16 -17 16 -20 2 -20 -8 0 -18 6 -20
13 -4 7 -6 6 -6 -4 -1 -23 25 -31 40 -13 9 11 8 18 -5 32 -18 21 -10 38 11 21
8 -7 13 -8 13 -1 0 5 -7 13 -16 16 -22 8 -24 8 -31 -9z"/>
<path d="M797 2277 c-15 -10 -16 -16 -5 -44 13 -36 29 -45 21 -13 -6 24 4 26
29 3 11 -10 18 -12 18 -4 0 6 -6 14 -14 17 -8 3 -13 11 -10 18 8 21 -20 38
-39 23z m33 -16 c0 -5 -7 -11 -15 -15 -9 -3 -15 0 -15 9 0 8 7 15 15 15 8 0
15 -4 15 -9z"/>
<path d="M1391 2241 c-21 -29 -21 -29 -1 -24 14 4 20 0 20 -11 0 -10 5 -14 10
-11 13 8 13 75 1 75 -5 0 -19 -13 -30 -29z m29 -1 c0 -5 -5 -10 -11 -10 -5 0
-7 5 -4 10 3 6 8 10 11 10 2 0 4 -4 4 -10z"/>
<path d="M730 2245 c-16 -19 -5 -61 17 -69 23 -9 47 17 38 43 -9 30 -40 44
-55 26z m40 -20 c10 -12 10 -19 2 -27 -16 -16 -42 -2 -42 22 0 24 22 26 40 5z"/>
<path d="M1447 2221 c-21 -35 -22 -53 -2 -27 14 19 15 19 15 -7 0 -35 11 -34
33 2 23 40 21 51 -4 21 -12 -14 -19 -18 -16 -10 2 8 1 23 -2 33 -6 15 -9 13
-24 -12z"/>
<path d="M696 2198 c20 -23 20 -23 -31 -2 -20 8 -19 -5 5 -41 21 -32 27 -27 9
6 -10 20 -9 20 20 4 17 -8 31 -13 31 -9 0 13 -35 64 -44 64 -5 0 -1 -10 10
-22z"/>
<path d="M1532 2170 c-25 -33 -29 -48 -8 -31 7 6 22 8 32 5 16 -6 17 -5 7 7
-19 20 -16 31 7 24 25 -8 26 1 2 14 -15 8 -23 4 -40 -19z"/>
<path d="M594 2136 c3 -13 9 -32 13 -42 4 -12 3 -15 -5 -10 -7 4 -12 1 -12 -8
0 -21 -24 -20 -41 0 -11 14 -10 18 6 31 20 15 20 15 0 11 -31 -5 -31 -44 0
-64 26 -17 27 -17 48 7 12 13 22 31 22 39 0 9 8 14 20 13 17 -1 15 3 -10 23
-38 30 -49 30 -41 0z m26 -6 c0 -5 -2 -10 -4 -10 -3 0 -8 5 -11 10 -3 6 -1 10
4 10 6 0 11 -4 11 -10z"/>
<path d="M1575 2130 c-27 -28 -24 -45 3 -18 7 7 12 8 13 3 1 -6 2 -19 3 -30 0
-13 8 -20 21 -20 14 0 20 -7 19 -22 -1 -28 12 -20 32 19 20 38 14 44 -26 23
-41 -21 -50 -12 -20 20 19 20 21 27 10 40 -17 21 -22 19 -55 -15z m50 -11 c-6
-9 -35 -1 -35 10 0 4 3 11 7 14 8 9 34 -13 28 -24z m35 -43 c0 -3 -4 -8 -10
-11 -5 -3 -10 -1 -10 4 0 6 5 11 10 11 6 0 10 -2 10 -4z"/>
<path d="M500 2072 c0 -5 15 -19 33 -32 l32 -23 -29 31 c-31 34 -36 37 -36 24z"/>
<path d="M1669 2033 c-22 -25 -22 -26 -1 -9 25 21 26 19 12 -19 -9 -24 -8 -26
9 -20 17 5 20 2 18 -22 -1 -20 3 -28 16 -29 12 -1 13 0 2 3 -21 6 -19 30 4 43
28 14 31 13 31 -12 0 -17 3 -19 12 -10 19 19 -10 45 -41 37 -25 -6 -25 -6 -7
14 23 25 10 28 -17 4 -19 -17 -20 -17 -8 4 25 48 7 57 -30 16z"/>
<path d="M485 2005 c36 -29 39 -29 55 -10 8 9 8 15 2 15 -6 0 -12 -6 -15 -12
-3 -9 -12 -6 -29 10 -13 12 -28 22 -34 22 -5 0 5 -11 21 -25z"/>
<path d="M428 1975 c11 -45 47 -60 72 -30 18 22 -14 56 -50 53 -22 -2 -26 -6
-22 -23z m57 -1 c12 -12 13 -20 5 -28 -13 -13 -44 4 -48 28 -4 21 22 21 43 0z"/>
<path d="M1390 1940 c0 -11 6 -20 14 -20 9 0 12 7 9 20 -3 11 -9 20 -14 20 -5
0 -9 -9 -9 -20z"/>
<path d="M391 1923 c-10 -22 -10 -25 0 -16 9 9 17 8 36 -4 13 -9 26 -13 30
-10 3 4 -6 12 -21 18 -15 7 -25 18 -22 26 10 25 -11 13 -23 -14z"/>
<path d="M1763 1930 c-18 -11 -33 -22 -33 -25 0 -8 58 23 65 35 9 14 5 13 -32
-10z"/>
<path d="M1787 1913 c-4 -3 -7 -17 -7 -30 0 -12 -4 -23 -10 -23 -5 0 -10 10
-10 22 0 15 -3 19 -10 12 -16 -16 -1 -44 22 -44 17 0 18 -3 8 -15 -16 -19 -6
-45 17 -45 17 1 17 1 0 11 -14 8 -16 14 -6 25 16 20 49 18 49 -3 0 -14 2 -15
13 -4 10 10 8 15 -6 26 -10 7 -27 11 -37 8 -16 -4 -20 0 -20 21 0 14 5 26 10
26 6 0 10 -8 10 -17 0 -13 3 -14 12 -5 8 8 8 15 -2 27 -14 16 -23 19 -33 8z"/>
<path d="M1343 1895 c0 -8 6 -15 13 -15 8 0 11 6 8 15 -4 8 -9 15 -13 15 -4 0
-8 -7 -8 -15z"/>
<path d="M1390 1719 c0 -123 3 -190 10 -183 13 13 15 367 1 372 -8 3 -11 -55
-11 -189z"/>
<path d="M370 1873 c0 -3 7 -15 17 -25 9 -10 18 -29 19 -43 2 -20 -2 -25 -21
-25 -30 0 -41 16 -23 37 11 14 11 16 -2 11 -27 -8 -23 -43 6 -56 32 -15 58 1
51 30 -3 10 -1 18 3 18 4 0 6 9 3 20 -4 15 0 20 13 21 14 1 13 3 -6 9 -32 10
-60 12 -60 3z m40 -13 c0 -5 -2 -10 -4 -10 -3 0 -8 5 -11 10 -3 6 -1 10 4 10
6 0 11 -4 11 -10z"/>
<path d="M1293 1850 c-1 -11 4 -20 12 -20 8 0 11 7 8 20 -3 11 -8 20 -12 20
-4 0 -7 -9 -8 -20z"/>
<path d="M1342 1723 c2 -92 7 -138 15 -140 8 -3 11 35 12 136 2 122 0 141 -14
141 -13 0 -15 -18 -13 -137z"/>
<path d="M1241 1704 c-2 -93 0 -115 11 -112 17 6 20 228 3 228 -7 0 -12 -41
-14 -116z"/>
<path d="M1292 1713 c2 -74 7 -108 16 -111 9 -3 12 23 12 107 0 93 -2 111 -15
111 -13 0 -15 -16 -13 -107z"/>
<path d="M1816 1777 c-28 -20 -17 -52 18 -52 36 0 56 26 37 49 -16 19 -31 20
-55 3z m51 -20 c-7 -21 -36 -32 -49 -19 -11 11 -10 16 5 27 20 15 50 9 44 -8z"/>
<path d="M1196 1764 c-8 -22 -8 -24 8 -24 9 0 14 9 13 20 -2 24 -13 26 -21 4z"/>
<path d="M316 1718 c-19 -27 -11 -36 34 -40 30 -3 35 0 38 19 3 17 -3 26 -23
33 -34 13 -31 14 -49 -12z m59 -8 c11 -17 -3 -28 -30 -22 -32 6 -33 32 -1 32
14 0 28 -4 31 -10z"/>
<path d="M1190 1680 c0 -38 4 -50 15 -50 11 0 15 12 15 50 0 38 -4 50 -15 50
-11 0 -15 -12 -15 -50z"/>
<path d="M1842 1683 c-17 -3 -22 -10 -20 -26 2 -18 10 -22 38 -22 31 0 35 3
38 28 3 28 -2 30 -56 20z m46 -20 c-4 -20 -49 -25 -55 -6 -4 10 7 15 50 22 5
0 7 -7 5 -16z"/>
<path d="M318 1653 c-27 -7 -22 -18 17 -36 19 -9 35 -13 35 -8 0 5 -6 12 -12
15 -9 3 -7 9 6 20 19 16 19 16 -5 15 -13 -1 -32 -3 -41 -6z"/>
<path d="M1858 1613 c-23 -4 -28 -9 -27 -31 2 -24 2 -24 6 -4 5 26 18 28 32 5
10 -17 10 -17 11 0 0 9 4 17 9 17 5 0 12 -8 14 -17 3 -11 5 -7 6 10 1 16 -4
26 -11 26 -7 -1 -25 -4 -40 -6z"/>
<path d="M294 1585 c-11 -28 4 -45 41 -45 30 0 35 3 35 24 0 35 -64 53 -76 21z
m64 -18 c3 -15 -1 -17 -25 -11 -35 8 -37 10 -28 24 10 17 49 8 53 -13z"/>
<path d="M308 1523 c12 -2 32 -2 45 0 12 2 2 4 -23 4 -25 0 -35 -2 -22 -4z"/>
<path d="M1855 1510 c28 -12 55 -12 55 0 0 6 -17 10 -37 9 -31 0 -34 -2 -18
-9z"/>
<path d="M293 1484 c-3 -8 0 -21 6 -27 10 -9 17 -7 31 11 23 28 33 28 25 1 -5
-15 -4 -19 4 -15 6 4 11 16 11 27 0 26 -40 26 -47 -1 -3 -11 -10 -20 -15 -20
-6 0 -8 9 -5 20 6 24 -1 27 -10 4z"/>
<path d="M1835 1490 c3 -5 10 -10 16 -10 5 0 9 5 9 10 0 6 -7 10 -16 10 -8 0
-12 -4 -9 -10z"/>
<path d="M1845 1470 c-15 -7 -9 -9 25 -9 33 -1 41 2 30 9 -18 12 -28 12 -55 0z"/>
<path d="M122 939 l3 -531 33 -29 32 -29 354 0 c370 0 386 -2 459 -47 l37 -23
0 179 c0 194 1 191 -57 191 -85 0 -280 76 -389 151 -129 88 -256 251 -314 399
-30 81 -60 200 -60 246 0 22 -4 24 -50 24 l-51 0 3 -531z"/>
<path d="M1980 1438 c0 -59 -40 -199 -80 -286 -131 -278 -388 -464 -702 -507
l-48 -6 0 -179 0 -179 36 24 c20 14 53 29 73 35 21 6 186 10 396 10 391 0 385
0 414 57 8 15 11 179 11 542 l0 521 -50 0 c-50 0 -50 0 -50 -32z"/>
<path d="M1030 1450 c0 -5 5 -10 11 -10 5 0 7 5 4 10 -3 6 -8 10 -11 10 -2 0
-4 -4 -4 -10z"/>
<path d="M1840 1435 c11 -13 10 -18 -6 -30 -18 -14 -17 -15 11 -9 70 14 71 15
34 35 -42 22 -55 24 -39 4z m35 -15 c3 -5 1 -10 -4 -10 -6 0 -11 5 -11 10 0 6
2 10 4 10 3 0 8 -4 11 -10z"/>
<path d="M305 1428 c-7 -5 -11 -17 -8 -28 6 -22 46 -27 73 -10 12 8 10 10 -9
10 -23 0 -23 1 -7 19 17 18 16 19 -9 17 -15 0 -32 -4 -40 -8z m25 -23 c0 -8
-4 -15 -10 -15 -5 0 -10 7 -10 15 0 8 5 15 10 15 6 0 10 -7 10 -15z"/>
<path d="M1300 1391 c0 -6 4 -13 10 -16 6 -3 7 1 4 9 -7 18 -14 21 -14 7z"/>
<path d="M1190 1361 c-7 -15 -7 -22 2 -27 7 -4 10 -4 6 1 -4 4 -3 16 3 26 5
11 7 19 5 19 -3 0 -10 -9 -16 -19z"/>
<path d="M1814 1365 c-7 -17 3 -35 18 -35 7 0 6 5 -2 15 -10 12 -9 16 4 21 9
3 23 4 31 0 18 -6 20 -36 3 -36 -6 0 -8 -3 -5 -6 4 -4 13 -1 22 6 11 9 12 17
4 31 -12 23 -67 26 -75 4z"/>
<path d="M375 1360 c12 -20 -7 -31 -22 -13 -13 17 -14 17 -9 1 3 -12 0 -18 -9
-18 -8 0 -15 7 -15 15 0 8 -4 15 -9 15 -10 0 -3 -38 9 -45 4 -2 23 0 42 6 29
7 35 13 31 29 -3 11 -10 20 -15 20 -5 0 -6 -4 -3 -10z"/>
<path d="M1321 1344 c0 -11 3 -14 6 -6 3 7 2 16 -1 19 -3 4 -6 -2 -5 -13z"/>
<path d="M1410 1350 c-12 -7 -10 -9 8 -7 12 0 22 5 22 9 0 11 -12 10 -30 -2z"/>
<path d="M1803 1305 c-14 -11 -16 -18 -7 -32 15 -24 69 -30 78 -7 13 34 -39
62 -71 39z m55 -27 c2 -12 -3 -18 -16 -18 -22 0 -46 23 -35 34 13 13 48 1 51
-16z"/>
<path d="M350 1291 l35 -6 -24 -17 c-14 -10 -23 -20 -20 -23 3 -2 21 9 40 25
l34 29 -50 -1 c-45 -1 -47 -1 -15 -7z"/>
<path d="M1022 1264 c10 -10 20 -16 22 -13 3 3 -5 11 -17 18 -21 13 -21 12 -5
-5z"/>
<path d="M1080 1260 c-9 -6 -10 -10 -3 -10 6 0 15 5 18 10 8 12 4 12 -15 0z"/>
<path d="M381 1244 c-19 -8 -32 -16 -29 -19 6 -7 68 18 68 27 0 10 2 10 -39
-8z"/>
<path d="M1130 1240 c-2 -18 -4 -20 -7 -7 -6 24 -23 22 -23 -3 0 -25 29 -38
41 -19 5 8 9 9 9 4 0 -7 26 -11 63 -11 l63 -1 -4 28 c-3 23 -9 28 -28 27 -13
-1 -24 -6 -24 -11 0 -4 -6 -5 -12 0 -20 12 -41 13 -54 2 -8 -7 -14 -6 -17 3
-3 7 -6 2 -7 -12z m60 -10 c0 -5 -7 -10 -15 -10 -8 0 -15 5 -15 10 0 6 7 10
15 10 8 0 15 -4 15 -10z"/>
<path d="M1560 1256 c0 -2 8 -10 18 -17 15 -13 16 -12 3 4 -13 16 -21 21 -21
13z"/>
<path d="M1793 1239 c22 -13 13 -29 -16 -30 -20 -1 -21 -2 -2 -6 11 -3 26 -10
32 -15 18 -14 43 -2 43 21 0 12 -11 23 -31 30 -39 14 -50 14 -26 0z m45 -31
c-6 -18 -28 -21 -28 -4 0 9 7 16 16 16 9 0 14 -5 12 -12z"/>
<path d="M388 1218 c-16 -5 -28 -14 -28 -19 0 -6 9 -5 21 1 26 14 35 7 14 -10
-8 -7 -15 -19 -15 -26 0 -11 7 -10 36 3 19 10 31 19 24 21 -6 2 -17 -2 -25 -8
-9 -7 -15 -8 -15 -2 0 5 7 15 15 22 16 13 20 31 8 29 -5 0 -20 -5 -35 -11z"/>
<path d="M1753 1181 c1 -5 -7 -16 -18 -25 -19 -14 -19 -16 -3 -32 14 -14 20
-15 33 -4 8 7 19 10 22 6 4 -4 1 -11 -7 -16 -8 -5 -11 -12 -7 -16 11 -11 41
22 33 35 -9 14 -43 14 -51 1 -4 -6 -11 -8 -16 -4 -6 4 -2 14 11 26 21 19 21
19 55 -1 19 -11 35 -17 35 -13 0 8 -72 52 -84 52 -3 0 -5 -4 -3 -9z"/>
<path d="M415 1149 c-17 -12 -21 -18 -10 -14 63 23 75 12 28 -24 -16 -11 -23
-21 -16 -21 7 0 24 11 40 24 24 20 25 26 14 40 -17 20 -20 20 -56 -5z"/>
<path d="M1059 1103 c-13 -16 -12 -17 4 -4 9 7 17 15 17 17 0 8 -8 3 -21 -13z"/>
<path d="M1482 881 c-18 -11 14 -73 36 -69 24 5 23 20 -1 50 -14 17 -27 24
-35 19z m24 -28 c15 -20 18 -33 7 -33 -5 0 -13 11 -20 25 -13 29 -6 33 13 8z"/>
<path d="M682 848 c-16 -44 -9 -46 16 -3 14 23 17 35 9 35 -7 0 -18 -14 -25
-32z"/>
<path d="M738 844 c-32 -17 -33 -20 -14 -40 13 -12 17 -10 30 18 9 17 15 32
14 34 -2 1 -15 -4 -30 -12z"/>
<path d="M1424 848 c-5 -8 -2 -9 9 -5 14 5 17 0 17 -23 0 -16 5 -32 12 -36 8
-5 9 -2 5 10 -4 10 -7 29 -7 42 0 25 -23 33 -36 12z"/>
<path d="M1382 828 c-15 -15 4 -52 24 -44 8 3 14 1 14 -4 0 -6 -5 -10 -11 -10
-5 0 -7 -5 -4 -10 10 -16 25 -1 25 24 0 30 -32 60 -48 44z m28 -18 c0 -5 -4
-10 -10 -10 -5 0 -10 5 -10 10 0 6 5 10 10 10 6 0 10 -4 10 -10z"/>
<path d="M796 798 c-16 -37 -13 -48 13 -48 25 0 43 24 39 52 -5 37 -36 35 -52
-4z m39 -17 c-3 -12 -13 -21 -21 -21 -17 0 -18 14 -3 42 14 26 34 9 24 -21z"/>
<path d="M1337 805 c-4 -8 -2 -15 3 -15 5 0 12 -11 16 -25 3 -14 10 -25 15
-25 5 0 2 17 -6 37 -19 46 -21 48 -28 28z"/>
<path d="M863 775 c-10 -31 -9 -36 9 -46 11 -6 22 -8 25 -5 3 3 -2 8 -11 12
-23 9 -20 24 7 25 16 1 18 2 5 6 -27 7 -22 32 5 26 18 -4 19 -3 7 6 -25 18
-36 12 -47 -24z"/>
<path d="M1241 786 c-16 -20 -10 -56 11 -70 14 -8 22 -7 35 7 16 16 16 20 3
44 -18 33 -33 38 -49 19z m42 -26 c7 -27 -16 -45 -33 -25 -15 18 -6 45 14 45
7 0 16 -9 19 -20z"/>
<path d="M954 756 c-3 -20 -4 -40 0 -43 3 -4 6 1 6 11 0 9 5 14 10 11 6 -4 8
-11 5 -16 -11 -16 7 -10 22 9 13 15 13 15 7 -8 -5 -19 -3 -22 6 -14 6 6 10 27
8 45 l-4 34 -14 -30 -14 -30 -4 25 c-6 42 -20 45 -28 6z"/>
<path d="M1185 779 c-17 -7 -18 -8 -2 -8 16 -1 16 -3 2 -31 -20 -38 -19 -40
10 -40 14 0 25 4 25 10 0 5 -7 7 -15 4 -19 -8 -19 0 0 36 17 32 10 42 -20 29z"/>
<path d="M1046 748 c-18 -42 -21 -61 -6 -38 8 12 13 13 30 2 19 -12 20 -11 14
15 -13 56 -22 61 -38 21z m24 -8 c0 -5 -4 -10 -10 -10 -5 0 -10 5 -10 10 0 6
5 10 10 10 6 0 10 -4 10 -10z"/>
<path d="M1100 740 c0 -22 4 -40 10 -40 5 0 7 7 4 15 -8 20 5 19 29 -2 19 -17
20 -17 8 4 -7 13 -7 24 -1 28 17 10 -1 35 -26 35 -21 0 -24 -4 -24 -40z m40
15 c0 -8 -4 -15 -9 -15 -13 0 -22 16 -14 24 11 11 23 6 23 -9z"/>
</g>
</svg>
